<svg width="21" height="20" viewBox="0 0 21 20" fill="none" xmlns="http://www.w3.org/2000/svg">
<mask id="mask0_158_1151" style="mask-type:alpha" maskUnits="userSpaceOnUse" x="0" y="0" width="21" height="20">
<rect x="0.5" width="20" height="20" fill="#D9D9D9"/>
</mask>
<g mask="url(#mask0_158_1151)">
<path d="M10.5003 18.3333C9.34755 18.3333 8.26421 18.1146 7.25033 17.6771C6.23644 17.2396 5.35449 16.6458 4.60449 15.8958C3.85449 15.1458 3.26074 14.2639 2.82324 13.25C2.38574 12.2361 2.16699 11.1528 2.16699 9.99999C2.16699 8.84721 2.38574 7.76388 2.82324 6.74999C3.26074 5.7361 3.85449 4.85416 4.60449 4.10416C5.35449 3.35416 6.23644 2.76041 7.25033 2.32291C8.26421 1.88541 9.34755 1.66666 10.5003 1.66666C11.6531 1.66666 12.7364 1.88541 13.7503 2.32291C14.7642 2.76041 15.6462 3.35416 16.3962 4.10416C17.1462 4.85416 17.7399 5.7361 18.1774 6.74999C18.6149 7.76388 18.8337 8.84721 18.8337 9.99999V11.2083C18.8337 12.0278 18.5524 12.7257 17.9899 13.3021C17.4274 13.8785 16.7364 14.1667 15.917 14.1667C15.4309 14.1667 14.9725 14.0625 14.542 13.8542C14.1114 13.6458 13.7503 13.3472 13.4587 12.9583C13.0559 13.3611 12.601 13.6632 12.0941 13.8646C11.5871 14.066 11.0559 14.1667 10.5003 14.1667C9.34755 14.1667 8.36491 13.7604 7.55241 12.9479C6.73991 12.1354 6.33366 11.1528 6.33366 9.99999C6.33366 8.84721 6.73991 7.86457 7.55241 7.05207C8.36491 6.23957 9.34755 5.83332 10.5003 5.83332C11.6531 5.83332 12.6357 6.23957 13.4482 7.05207C14.2607 7.86457 14.667 8.84721 14.667 9.99999V11.2083C14.667 11.5694 14.785 11.875 15.0212 12.125C15.2573 12.375 15.5559 12.5 15.917 12.5C16.2781 12.5 16.5767 12.375 16.8128 12.125C17.0489 11.875 17.167 11.5694 17.167 11.2083V9.99999C17.167 8.13888 16.5212 6.56249 15.2295 5.27082C13.9378 3.97916 12.3614 3.33332 10.5003 3.33332C8.63921 3.33332 7.06283 3.97916 5.77116 5.27082C4.47949 6.56249 3.83366 8.13888 3.83366 9.99999C3.83366 11.8611 4.47949 13.4375 5.77116 14.7292C7.06283 16.0208 8.63921 16.6667 10.5003 16.6667H14.667V18.3333H10.5003ZM10.5003 12.5C11.1948 12.5 11.785 12.2569 12.2712 11.7708C12.7573 11.2847 13.0003 10.6944 13.0003 9.99999C13.0003 9.30555 12.7573 8.71527 12.2712 8.22916C11.785 7.74305 11.1948 7.49999 10.5003 7.49999C9.80588 7.49999 9.2156 7.74305 8.72949 8.22916C8.24338 8.71527 8.00033 9.30555 8.00033 9.99999C8.00033 10.6944 8.24338 11.2847 8.72949 11.7708C9.2156 12.2569 9.80588 12.5 10.5003 12.5Z" fill="#5553FB"/>
</g>
</svg>
