<svg width="16" height="17" viewBox="0 0 16 17" fill="none" xmlns="http://www.w3.org/2000/svg">
<mask id="mask0_2028_834" style="mask-type:alpha" maskUnits="userSpaceOnUse" x="0" y="0" width="16" height="17">
<rect y="0.894287" width="16" height="16" fill="#D9D9D9"/>
</mask>
<g mask="url(#mask0_2028_834)">
<path d="M7.99919 15.5611C7.07696 15.5611 6.2103 15.3861 5.39919 15.0361C4.58808 14.6861 3.88252 14.2111 3.28252 13.6111C2.68252 13.0111 2.20752 12.3056 1.85752 11.4945C1.50752 10.6833 1.33252 9.81667 1.33252 8.89445C1.33252 7.97223 1.50752 7.10556 1.85752 6.29445C2.20752 5.48334 2.68252 4.77778 3.28252 4.17778C3.88252 3.57778 4.58808 3.10278 5.39919 2.75278C6.2103 2.40278 7.07696 2.22778 7.99919 2.22778C8.92141 2.22778 9.78808 2.40278 10.5992 2.75278C11.4103 3.10278 12.1159 3.57778 12.7159 4.17778C13.3159 4.77778 13.7909 5.48334 14.1409 6.29445C14.4909 7.10556 14.6659 7.97223 14.6659 8.89445V9.86112C14.6659 10.5167 14.4409 11.075 13.9909 11.5361C13.5409 11.9972 12.9881 12.2278 12.3325 12.2278C11.9436 12.2278 11.577 12.1445 11.2325 11.9778C10.8881 11.8111 10.5992 11.5722 10.3659 11.2611C10.0436 11.5833 9.67974 11.825 9.27419 11.9861C8.86863 12.1472 8.44363 12.2278 7.99919 12.2278C7.07696 12.2278 6.29085 11.9028 5.64085 11.2528C4.99085 10.6028 4.66585 9.81667 4.66585 8.89445C4.66585 7.97223 4.99085 7.18612 5.64085 6.53612C6.29085 5.88612 7.07696 5.56112 7.99919 5.56112C8.92141 5.56112 9.70752 5.88612 10.3575 6.53612C11.0075 7.18612 11.3325 7.97223 11.3325 8.89445V9.86112C11.3325 10.15 11.427 10.3945 11.6159 10.5944C11.8047 10.7944 12.0436 10.8945 12.3325 10.8945C12.6214 10.8945 12.8603 10.7944 13.0492 10.5944C13.2381 10.3945 13.3325 10.15 13.3325 9.86112V8.89445C13.3325 7.40556 12.8159 6.14445 11.7825 5.11112C10.7492 4.07778 9.48808 3.56112 7.99919 3.56112C6.5103 3.56112 5.24919 4.07778 4.21585 5.11112C3.18252 6.14445 2.66585 7.40556 2.66585 8.89445C2.66585 10.3833 3.18252 11.6445 4.21585 12.6778C5.24919 13.7111 6.5103 14.2278 7.99919 14.2278H11.3325V15.5611H7.99919ZM7.99919 10.8945C8.55474 10.8945 9.02696 10.7 9.41585 10.3111C9.80474 9.92223 9.99919 9.45001 9.99919 8.89445C9.99919 8.33889 9.80474 7.86667 9.41585 7.47778C9.02696 7.08889 8.55474 6.89445 7.99919 6.89445C7.44363 6.89445 6.97141 7.08889 6.58252 7.47778C6.19363 7.86667 5.99919 8.33889 5.99919 8.89445C5.99919 9.45001 6.19363 9.92223 6.58252 10.3111C6.97141 10.7 7.44363 10.8945 7.99919 10.8945Z" fill="#231F20"/>
</g>
</svg>
