<svg width="32" height="32" viewBox="0 0 32 32" fill="none" xmlns="http://www.w3.org/2000/svg">
<mask id="mask0_2028_459" style="mask-type:alpha" maskUnits="userSpaceOnUse" x="0" y="0" width="32" height="32">
<rect width="32" height="32" fill="#D9D9D9"/>
</mask>
<g mask="url(#mask0_2028_459)">
<path d="M8.7 14.4667L16.0333 2.66667L23.3667 14.4667H8.7ZM23.5216 29.3333C21.9072 29.3333 20.5389 28.7706 19.4167 27.6451C18.2944 26.5196 17.7333 25.153 17.7333 23.5451C17.7333 21.9373 18.2961 20.5667 19.4216 19.4333C20.5471 18.3 21.9137 17.7333 23.5216 17.7333C25.1294 17.7333 26.5 18.2984 27.6333 19.4284C28.7667 20.5585 29.3333 21.9307 29.3333 23.5451C29.3333 25.1595 28.7683 26.5278 27.6382 27.65C26.5082 28.7722 25.1359 29.3333 23.5216 29.3333ZM4 28.5V18.3667H14.1333V28.5H4Z" fill="#231F20"/>
</g>
</svg>
