<svg width="20" height="21" viewBox="0 0 20 21" fill="none" xmlns="http://www.w3.org/2000/svg">
<g clip-path="url(#clip0_2028_847)">
<path fill-rule="evenodd" clip-rule="evenodd" d="M16.9915 3.79846C15.122 1.92661 12.6357 0.895237 9.98652 0.894287C4.52768 0.894287 0.0849978 5.3365 0.0830984 10.7968C0.0821486 12.5423 0.538478 14.2461 1.40508 15.7475L0 20.8797L5.24992 19.5026C6.6963 20.2919 8.32503 20.7073 9.98227 20.7078H9.98652C15.4444 20.7078 19.8876 16.2651 19.8895 10.8048C19.8904 8.15854 18.8614 5.67079 16.9915 3.79893V3.79846ZM9.98652 19.0354H9.9832C8.50641 19.0349 7.05768 18.6379 5.79365 17.8882L5.49305 17.7096L2.37757 18.5268L3.20903 15.4892L3.01339 15.1777C2.18953 13.8672 1.75409 12.3524 1.75504 10.7973C1.75694 6.25913 5.44936 2.5667 9.98989 2.5667C12.1884 2.56765 14.255 3.42476 15.8091 4.98083C17.3633 6.53644 18.2185 8.60489 18.2176 10.8039C18.2156 15.3425 14.5233 19.0349 9.98652 19.0349V19.0354ZM14.5014 12.8709C14.254 12.747 13.0375 12.1487 12.8104 12.0661C12.5835 11.9834 12.4187 11.9421 12.2539 12.19C12.0892 12.4379 11.6148 12.9953 11.4704 13.1601C11.3261 13.3253 11.1817 13.3458 10.9343 13.2218C10.687 13.0979 9.88967 12.8367 8.94425 11.9938C8.20873 11.3376 7.71199 10.5275 7.56768 10.2796C7.42332 10.0318 7.55249 9.89788 7.67591 9.77489C7.78702 9.66379 7.92332 9.48572 8.04724 9.34136C8.17122 9.19699 8.21204 9.09351 8.29464 8.92871C8.37729 8.76346 8.33597 8.61915 8.27425 8.49517C8.21249 8.37125 7.71773 7.15324 7.51116 6.65799C7.31028 6.17555 7.10613 6.24108 6.95464 6.23301C6.81028 6.22588 6.64552 6.22446 6.48028 6.22446C6.31503 6.22446 6.04718 6.28619 5.82022 6.53407C5.59326 6.78191 4.95409 7.38069 4.95409 8.59821C4.95409 9.81572 5.84066 10.9929 5.96459 11.1582C6.08851 11.3234 7.70961 13.8225 10.1917 14.8947C10.7819 15.1497 11.243 15.3021 11.6024 15.4161C12.1951 15.6046 12.7345 15.578 13.1609 15.5144C13.6362 15.4432 14.6249 14.9156 14.8309 14.3377C15.037 13.7598 15.037 13.2641 14.9753 13.161C14.9136 13.058 14.7483 12.9958 14.5009 12.8719L14.5014 12.8709Z" fill="#25D366"/>
</g>
<defs>
<clipPath id="clip0_2028_847">
<rect width="19.8895" height="20" fill="white" transform="translate(0 0.894287)"/>
</clipPath>
</defs>
</svg>
