<svg width="174" height="192" viewBox="0 0 174 192" fill="none" xmlns="http://www.w3.org/2000/svg">
<path d="M39.492 176.501L42.2385 187.079C42.9553 189.836 45.623 191.702 48.5764 191.5C57.577 190.89 76.2802 188.684 87.0149 180.777L83.963 165.535C69.2034 164.7 55.4019 165.522 43.4504 169.542C40.4576 170.549 38.7259 173.547 39.4945 176.501H39.492Z" fill="#102048"/>
<path d="M56.6952 184.923C56.54 184.923 56.3947 184.819 56.3528 184.662L52.6679 171.472C52.6137 171.283 52.727 171.086 52.9166 171.034C53.1088 170.982 53.3034 171.093 53.3551 171.283L57.0401 184.472C57.0918 184.662 56.981 184.859 56.7913 184.91C56.7593 184.92 56.7272 184.923 56.6952 184.923Z" fill="white"/>
<path d="M64.6612 183.138C64.506 183.138 64.3607 183.034 64.3188 182.877L60.6338 169.687C60.5821 169.498 60.6929 169.301 60.8826 169.249C61.0747 169.195 61.2693 169.308 61.321 169.498L65.006 182.687C65.0602 182.877 64.9469 183.074 64.7572 183.126C64.7252 183.135 64.6932 183.138 64.6612 183.138Z" fill="white"/>
<path d="M73.9132 119.329L39.6104 129.503L65.085 164.385L101.659 167.292L152.103 145.974L132.934 117.148L73.9132 119.329Z" fill="#FBC343"/>
<path d="M116.204 124.174C191.534 101.888 203.641 168.422 86.1061 180.536C81.9555 175.866 77.103 167.767 75.1768 160.995L137.245 132.329L116.204 124.174Z" fill="#FBC343"/>
<path d="M119.404 171.859C115.881 170.731 112.504 168.503 112.504 168.503L100.397 172.299L103.171 185.462L115.748 188.014C119.579 181.011 119.803 175.261 119.404 171.859Z" fill="#F9B384"/>
<path d="M75.4423 161.456L74.9053 160.53C87.8544 153.01 121.022 134.941 149.28 129.614L149.479 130.665C121.384 135.963 88.3446 153.962 75.4423 161.456Z" fill="#E49B31"/>
<path d="M73.9129 119.329C3.79489 106.006 -14.3665 173.348 103.171 185.462C107.322 180.792 110.576 175.275 112.504 168.506C94.4488 156.434 74.2627 144.957 52.1381 134.028L73.9129 119.331V119.329Z" fill="#FBC343"/>
<path d="M112.216 168.954C108.88 166.832 105.405 164.589 101.725 162.216C83.2531 150.297 62.3182 136.79 44.5312 129.087L44.9574 128.105C62.8256 135.842 83.7999 149.376 102.306 161.318C105.984 163.691 109.459 165.933 112.792 168.053L112.218 168.956L112.216 168.954Z" fill="#E49B31"/>
<path d="M22.4683 152.719L21.5322 152.202C24.1654 147.441 28.38 144.229 34.0626 142.656L34.3484 143.687C28.8776 145.201 24.9931 148.155 22.4683 152.719Z" fill="#E49B31"/>
<path d="M168.816 148.665C166.293 144.101 162.406 141.147 156.936 139.633L157.221 138.601C162.904 140.174 167.119 143.387 169.752 148.148L168.816 148.665Z" fill="#E49B31"/>
<path d="M96.6065 184.868L95.8232 184.14C101.432 178.136 104.878 171.799 106.356 164.764L107.403 164.983C105.883 172.213 102.353 178.719 96.6065 184.868Z" fill="#E49B31"/>
<path d="M154.372 167.937C145.388 162.391 127.974 171.974 123.601 172.459C122.328 172.6 120.852 172.321 119.402 171.859C119.801 175.261 119.579 181.011 115.746 188.015L117.882 188.448C117.882 188.448 132.651 193.859 148.317 190.708C162.779 187.8 161.434 172.297 154.369 167.937H154.372Z" fill="#102048"/>
<path d="M142.127 186.08C142.093 186.08 142.056 186.075 142.019 186.062C141.831 186.003 141.726 185.804 141.787 185.614C142.854 182.237 143.319 175.593 140.228 171.13C140.115 170.967 140.156 170.746 140.319 170.633C140.482 170.519 140.703 170.561 140.814 170.724C144.051 175.396 143.575 182.318 142.467 185.829C142.418 185.981 142.277 186.077 142.127 186.077V186.08Z" fill="white"/>
<path d="M135.082 187.416C135.048 187.416 135.011 187.411 134.974 187.399C134.787 187.34 134.681 187.141 134.742 186.951C135.809 183.574 136.274 176.93 133.183 172.467C133.07 172.304 133.112 172.083 133.274 171.969C133.437 171.856 133.658 171.898 133.769 172.06C137.006 176.733 136.53 183.655 135.422 187.165C135.373 187.318 135.232 187.414 135.082 187.414V187.416Z" fill="white"/>
<path d="M61.5079 32.4986C61.5079 32.4986 79.1667 17.4923 78.514 14.6392C78.046 12.601 73.0456 15.5894 73.0456 15.5894C73.0456 15.5894 80.0609 7.27144 79.7037 6.26215C79.0657 4.45775 74.2156 7.82039 74.2156 7.82039C74.2156 7.82039 77.4942 3.10384 75.9276 2.33334C74.361 1.5653 70.942 4.47253 70.942 4.47253C70.942 4.47253 72.9397 1.85331 72.0012 1.16651C71.0627 0.479703 67.0156 3.3057 67.0156 3.3057C67.0156 3.3057 68.4689 0.00213599 65.3825 1.25513C62.2961 2.50812 40.6592 22.3516 40.6592 22.3516L61.5128 32.4986H61.5079Z" fill="#F9B384"/>
<path d="M68.7328 14.6983C68.6466 14.6983 68.5604 14.6663 68.4914 14.6048C65.4592 11.8378 64.1241 11.1658 60.7791 10.1368C60.5919 10.0802 60.486 9.87836 60.5426 9.69127C60.6017 9.50418 60.7988 9.39586 60.9885 9.45494C64.4542 10.5208 65.8361 11.215 68.9718 14.078C69.1171 14.2109 69.1269 14.4374 68.9939 14.5826C68.9225 14.6589 68.8264 14.6983 68.7304 14.6983H68.7328Z" fill="#E28B6D"/>
<path d="M63.4123 22.839C63.3951 22.839 63.3803 22.839 63.3631 22.8366C63.1685 22.8095 63.033 22.6298 63.0601 22.4353C63.4074 19.954 64.1882 18.4031 65.4494 17.6941C66.5283 17.0886 67.9299 17.1501 69.6196 17.8788C69.7995 17.9575 69.8832 18.1668 69.8069 18.3465C69.728 18.5262 69.5187 18.6099 69.3388 18.5336C67.8658 17.8985 66.6761 17.8246 65.8017 18.3169C64.7622 18.9004 64.0774 20.3207 63.7695 22.5338C63.7449 22.711 63.5921 22.8415 63.4173 22.8415L63.4123 22.839Z" fill="#E28B6D"/>
<path d="M62.5794 7.83762C62.4858 7.83762 62.3898 7.80069 62.3208 7.72684C62.1853 7.58406 62.1927 7.35759 62.3356 7.2222L66.7669 3.04967C66.9098 2.91428 67.1364 2.92166 67.2719 3.06444C67.4073 3.20722 67.3999 3.43369 67.2571 3.56908L62.8257 7.74161C62.7568 7.80561 62.6681 7.83762 62.5819 7.83762H62.5794Z" fill="#E28B6D"/>
<path d="M66.6838 9.26293C66.5951 9.26293 66.5064 9.23094 66.4374 9.16447C66.2946 9.02908 66.2897 8.80261 66.4276 8.65983L70.6841 4.22883C70.8195 4.08605 71.0461 4.08112 71.189 4.21897C71.3319 4.35436 71.3368 4.58084 71.1989 4.72361L66.9424 9.15462C66.8734 9.22847 66.7798 9.2654 66.6862 9.2654L66.6838 9.26293Z" fill="#E28B6D"/>
<path d="M70.8737 11.7566C70.7875 11.7566 70.6988 11.7246 70.6298 11.6606C70.487 11.5252 70.4771 11.3012 70.6126 11.1559L73.9527 7.57668C74.0882 7.4339 74.3124 7.42405 74.4577 7.55944C74.6006 7.69484 74.6104 7.91885 74.4749 8.06408L71.1348 11.6434C71.0634 11.7197 70.9698 11.7566 70.8737 11.7566Z" fill="#E28B6D"/>
<path d="M128.214 132.873L63.6481 135.369L56.5146 76.5477C56.5146 76.5477 78.1294 56.0592 86.4453 48.5142L100.483 47.7954C144.04 67.5823 136.907 92.2925 128.214 132.873Z" fill="#3A6BEA"/>
<path d="M100.485 47.7954C100.485 47.7954 150.316 52.0541 166.027 86.1728C181.4 119.558 118.228 131.448 118.228 131.448L100.485 47.7954Z" fill="#3A6BEA"/>
<path d="M43.5237 55.1066L64.1163 30.064L44.8588 18.4006C36.8262 23.9812 21.2932 36.6244 8.12972 50.9414C5.22311 54.1022 2.95448 57.7923 1.81155 61.8565C0.836112 65.325 0.658764 68.7492 1.20806 72.1044C2.63673 80.8458 9.51897 87.5932 18.7043 88.669C26.5497 89.5872 56.5148 87.2437 80.7726 80.1122L87.9061 52.5932C84.2408 50.5131 56.9926 50.1537 43.5237 55.1041V55.1066Z" fill="#3A6BEA"/>
<g opacity="0.8">
<path d="M142.073 61.3345C142.181 61.3099 142.287 61.2853 142.395 61.2607C142.171 61.1278 141.945 60.9973 141.718 60.8668C138.065 61.7062 134.299 62.5654 130.584 63.0134C128.353 63.2817 120.894 63.7741 118.714 58.8089C117.63 56.3373 118.45 53.5901 119.677 51.6626C119.497 51.611 119.32 51.5592 119.143 51.51C117.886 53.5532 117.081 56.4186 118.224 59.023C120.552 64.3279 128.323 63.8233 130.648 63.5451C134.469 63.0848 138.336 62.1961 142.073 61.3345Z" fill="white"/>
<path d="M165.328 99.8154C162.948 98.8972 160.488 97.9469 157.901 98.1906C153.366 98.619 149.484 103.102 149.25 108.183C149.09 111.646 150.413 115.277 152.938 118.47C153.09 118.374 153.241 118.28 153.393 118.184C150.925 115.083 149.63 111.56 149.785 108.207C150.009 103.382 153.672 99.1285 157.953 98.7224C160.411 98.4959 162.707 99.3772 165.136 100.315C166.003 100.65 166.885 100.987 167.781 101.275C167.828 101.103 167.872 100.93 167.914 100.756C167.042 100.475 166.178 100.145 165.33 99.8178L165.328 99.8154Z" fill="white"/>
<path d="M39.5507 82.8101C36.4396 80.2377 31.6043 79.5509 26.2911 80.9245C21.5544 82.148 17.49 84.5752 14.6992 87.7852C14.884 87.8443 15.0613 87.9107 15.2485 87.9649C17.9655 84.9198 21.877 82.6181 26.4266 81.4439C31.5723 80.1121 36.2352 80.762 39.2132 83.2237C40.6295 84.393 41.6296 85.9118 42.3563 87.5513C42.541 87.5316 42.7258 87.5095 42.9105 87.4873C42.1494 85.7247 41.0877 84.0779 39.5556 82.8126L39.5507 82.8101Z" fill="white"/>
<path d="M11.4258 47.4434C17.2562 45.9959 22.9438 43.9626 28.1905 40.9421C30.1734 39.7999 32.4124 38.345 33.9864 36.2108C35.6614 33.9386 36.2181 31.2308 35.4742 28.971C35.1836 28.0848 34.6663 27.3069 34.0234 26.6816C33.8879 26.7924 33.75 26.9057 33.612 27.0189C34.213 27.5925 34.6958 28.3137 34.9668 29.1359C35.6565 31.2308 35.1269 33.7565 33.5554 35.8908C32.0405 37.9487 29.8581 39.3642 27.9244 40.4768C22.9758 43.325 17.6233 45.2968 12.1229 46.7196C11.8889 46.9584 11.6573 47.1997 11.4258 47.4409V47.4434Z" fill="white"/>
</g>
<path d="M105.044 34.7165L105.035 35.6298L104.889 49.8115L104.872 51.3476C104.845 53.7526 103.86 55.9312 102.266 57.5116C100.682 59.0846 98.502 60.0693 96.0881 60.089C91.2208 60.116 87.2427 56.2118 87.1959 51.3402L87.0234 33.8131L105.042 34.7165H105.044Z" fill="#F9B384"/>
<path d="M105.037 35.6298L104.892 49.8115C97.0043 46.6015 93.7578 38.0693 93.7578 38.0693L105.037 35.6298Z" fill="#102048"/>
<path d="M108.156 10.8802C110.981 14.2699 119.235 33.4784 110.87 40.0313C101.456 47.4065 87.1274 35.2852 87.1274 35.2852L85.2061 12.9136L97.6429 9.63708L108.158 10.8802H108.156Z" fill="#F9B384"/>
<path d="M78.8705 9.64935C78.8705 9.64935 51.2849 24.028 73.7766 65.4751C76.666 70.7972 83.0654 73.121 88.5387 70.524C94.411 67.7374 96.6353 60.569 93.4454 54.9072C89.7654 48.3739 86.2159 39.9648 87.7307 33.7048L78.8705 9.64935Z" fill="#102048"/>
<path d="M86.7512 21.7291C89.6649 18.8172 89.6649 14.0961 86.7512 11.1842C83.8375 8.27229 79.1134 8.27229 76.1996 11.1842C73.2859 14.0961 73.2859 18.8172 76.1996 21.7291C79.1134 24.641 83.8375 24.641 86.7512 21.7291Z" fill="#FBC343"/>
<path d="M90.6542 25.4139C89.8487 20.7614 89.3561 17.571 94.0609 15.1734C94.0609 15.1734 110.643 18.1865 113.808 11.9338C116.974 5.68118 112.151 -4.18519 102.049 2.6681C76.1951 -2.37833 72.7293 21.8002 80.5673 29.8622L88.3043 28.6756C89.8611 28.4369 90.9202 26.9648 90.6517 25.4139H90.6542Z" fill="#102048"/>
<path d="M103.493 26.5315C104.103 26.5315 104.597 26.0378 104.597 25.4287C104.597 24.8196 104.103 24.3259 103.493 24.3259C102.884 24.3259 102.39 24.8196 102.39 25.4287C102.39 26.0378 102.884 26.5315 103.493 26.5315Z" fill="#102048"/>
<path d="M110.954 22.8587C111.564 22.8587 112.058 22.3649 112.058 21.7558C112.058 21.1468 111.564 20.653 110.954 20.653C110.345 20.653 109.851 21.1468 109.851 21.7558C109.851 22.3649 110.345 22.8587 110.954 22.8587Z" fill="#102048"/>
<path d="M110.192 28.8184C110.116 28.8184 110.037 28.7888 109.978 28.7322C109.852 28.6141 109.847 28.4171 109.966 28.2916C110.407 27.8263 110.892 27.1715 110.687 26.6989C110.476 26.2066 109.581 25.9949 109.173 25.9949C108.293 25.9949 107.872 24.4317 107.796 24.1166C107.756 23.9492 107.857 23.7818 108.025 23.74C108.192 23.6981 108.36 23.8015 108.402 23.9689C108.562 24.6286 108.926 25.3696 109.173 25.3696C109.594 25.3696 110.88 25.569 111.261 26.4527C111.532 27.0829 111.249 27.846 110.416 28.7224C110.355 28.7864 110.274 28.8184 110.19 28.8184H110.192Z" fill="#102048"/>
<path d="M110.249 33.0008C110.19 33.0008 110.128 32.9835 110.074 32.9466C107.998 31.5459 105.904 32.7201 105.882 32.7324C105.734 32.8186 105.542 32.7669 105.456 32.6167C105.37 32.4666 105.421 32.277 105.572 32.1909C105.67 32.1342 108.03 30.8123 110.424 32.4296C110.567 32.5257 110.604 32.7201 110.508 32.8629C110.449 32.9515 110.35 33.0008 110.249 33.0008Z" fill="#102048"/>
<path d="M103.01 20.6555C103.638 21.8346 102.544 22.0709 101.264 22.7528C99.9827 23.4347 98.6723 23.6809 98.3742 23.1196C98.0762 22.5559 98.8693 21.5491 100.15 20.8696C101.431 20.1902 102.525 19.7447 103.01 20.6579V20.6555Z" fill="#102048"/>
<path d="M107.68 18.5286C107.956 19.5822 108.742 19.1194 109.885 18.8216C111.028 18.5237 111.951 17.9477 111.818 17.4455C111.688 16.9433 110.653 16.7784 109.51 17.0762C108.367 17.3741 107.466 17.7113 107.68 18.5262V18.5286Z" fill="#102048"/>
<path opacity="0.4" d="M100.611 32.936C101.931 31.7192 102.014 29.6635 100.796 28.3444C99.5784 27.0253 97.5214 26.9424 96.2014 28.1592C94.8815 29.376 94.7986 31.4317 96.0161 32.7508C97.2337 34.0699 99.2907 34.1528 100.611 32.936Z" fill="#EB5D60"/>
<path d="M90.0224 33.6466C91.5077 31.7233 90.9386 28.7965 88.7513 27.1095C86.564 25.4225 83.5868 25.614 82.1015 27.5373C80.6162 29.4606 81.1853 32.3874 83.3726 34.0744C85.5599 35.7615 88.5371 35.5699 90.0224 33.6466Z" fill="#F9B384"/>
<path d="M87.9939 32.2106C87.8215 32.2106 87.6811 32.0703 87.6811 31.898C87.6811 30.9773 87.2327 30.1256 86.479 29.6209C85.8361 29.1877 85.0676 29.0867 84.4272 29.3477C84.267 29.4117 84.0848 29.3354 84.0207 29.1778C83.9567 29.0178 84.033 28.8357 84.1907 28.7716C85.0232 28.4319 86.0085 28.555 86.8263 29.104C87.7525 29.7243 88.3043 30.7705 88.3043 31.898C88.3043 32.0703 88.1639 32.2106 87.9914 32.2106H87.9939Z" fill="#102048"/>
<path d="M43.2648 54.8558L32.002 67.0322L32.5265 67.5168L43.7893 55.3404L43.2648 54.8558Z" fill="#102048"/>
<path d="M122.613 107.191L122.406 106.509C130.606 104.01 138.563 101.024 145.775 92.0119L146.332 92.4575C138.994 101.63 130.924 104.66 122.613 107.193V107.191Z" fill="#102048"/>
<path d="M127.596 79.5829H57.8478C55.3403 79.5829 53.3057 81.7812 53.3057 84.494V134.262C53.3057 136.974 55.3403 139.173 57.8478 139.173H127.596C130.104 139.173 132.139 136.974 132.139 134.262V84.494C132.139 81.7812 130.104 79.5829 127.596 79.5829Z" fill="#231F20"/>
<path d="M96.4044 106.23C96.6704 106.23 96.8847 106.462 96.8847 106.75V112.006C96.8847 112.291 96.6704 112.525 96.4044 112.525H89.0393C88.7733 112.525 88.559 112.294 88.559 112.006V106.75C88.559 106.464 88.7733 106.23 89.0393 106.23H96.4044ZM96.4044 104.805H89.0393C87.9875 104.805 87.1328 105.677 87.1328 106.75V112.006C87.1328 113.079 87.9875 113.95 89.0393 113.95H96.4044C97.4562 113.95 98.3109 113.079 98.3109 112.006V106.75C98.3109 105.677 97.4562 104.805 96.4044 104.805Z" fill="#666666"/>
</svg>
