<svg width="107" height="126" viewBox="0 0 107 126" fill="none" xmlns="http://www.w3.org/2000/svg">
<path d="M86.259 102.204C87.2237 97.0626 83.8351 92.1131 78.6904 91.1491C73.5458 90.185 68.5932 93.5715 67.6285 98.7129C66.6638 103.854 70.0524 108.804 75.1971 109.768C80.3418 110.732 85.2944 107.345 86.259 102.204Z" fill="#D3DFFF"/>
<path d="M90.7623 119.975C91.3044 117.083 89.3811 114.296 86.4665 113.75C83.5518 113.204 80.7495 115.107 80.2073 117.999C79.6651 120.892 81.5884 123.679 84.5031 124.225C87.4177 124.77 90.2201 122.868 90.7623 119.975Z" fill="#D3DFFF"/>
<path d="M79.93 79.1223C94.5052 64.5563 94.5052 40.9401 79.93 26.3741C65.3548 11.808 41.7237 11.808 27.1485 26.3741C12.5733 40.9401 12.5733 64.5563 27.1486 79.1223C41.7238 93.6883 65.3548 93.6883 79.93 79.1223Z" fill="#D3DFFF"/>
<path d="M39.2087 57.448C41.806 57.448 43.9115 55.3438 43.9115 52.7482C43.9115 50.1525 41.806 48.0483 39.2087 48.0483C36.6114 48.0483 34.5059 50.1525 34.5059 52.7482C34.5059 55.3438 36.6114 57.448 39.2087 57.448Z" fill="white"/>
<path d="M53.5397 57.448C56.137 57.448 58.2425 55.3438 58.2425 52.7482C58.2425 50.1525 56.137 48.0483 53.5397 48.0483C50.9424 48.0483 48.8369 50.1525 48.8369 52.7482C48.8369 55.3438 50.9424 57.448 53.5397 57.448Z" fill="white"/>
<path d="M67.8727 57.448C70.47 57.448 72.5756 55.3438 72.5756 52.7482C72.5756 50.1525 70.47 48.0483 67.8727 48.0483C65.2754 48.0483 63.1699 50.1525 63.1699 52.7482C63.1699 55.3438 65.2754 57.448 67.8727 57.448Z" fill="white"/>
</svg>
