<svg width="252" height="191" viewBox="0 0 252 191" fill="none" xmlns="http://www.w3.org/2000/svg">
<path d="M247.022 127.917C242.857 118.449 234.857 110.547 225.248 106.659C215.239 102.609 203.746 104.082 193.204 102.726C184.048 101.548 177.442 97.4636 171.974 90.2009C166.736 83.2421 162.038 75.5355 153.475 72.316C146.707 69.7719 139.013 70.4783 132.286 73.1278C119.893 78.0122 110.531 88.396 102.647 98.7417C95.4486 108.188 89.5777 118.53 76.2632 118.867C62.9401 119.203 50.2564 111.609 36.8434 113.621C19.1149 116.281 4.34868 131.031 1.25509 148.59C-1.64492 165.046 5.63104 181.009 18.1315 190.385H232.992C248.743 173.685 257.008 150.617 247.022 127.917Z" fill="#F4F3EB"/>
<path d="M52.7916 190.385H53.3827C57.4873 185.876 60.7036 180.406 62.7464 174.333C66.0543 164.504 65.916 154.187 62.3541 145.286C60.555 140.786 57.9557 136.594 55.4411 132.539C52.8919 128.427 50.2563 124.174 48.4675 119.618C47.7278 117.734 47.1817 115.711 46.8533 113.647C46.7047 113.628 46.5561 113.613 46.4092 113.594C46.7393 115.732 47.301 117.827 48.0666 119.775C49.8692 124.368 52.5168 128.637 55.0764 132.765C57.5806 136.803 60.1696 140.981 61.9549 145.444C65.4788 154.251 65.6153 164.462 62.3385 174.195C60.2698 180.344 56.9861 185.865 52.7934 190.385H52.7916Z" fill="white"/>
<path d="M231.954 171.659C236.382 172.603 240.647 173.447 244.772 173.979C244.843 173.843 244.912 173.706 244.981 173.57C240.821 173.041 236.515 172.19 232.044 171.236C225.234 169.787 217.865 168.217 210.554 168.217C206.028 168.217 201.526 168.818 197.195 170.423C195.555 171.031 193.974 171.801 192.466 172.72C188.555 171.055 184.624 169.236 180.73 167.24C183.556 165.112 186.412 163.029 189.299 161.015C210.726 146.063 230.5 137.586 249.604 135.18C249.566 135.04 249.527 134.9 249.487 134.76C230.331 137.185 210.515 145.685 189.053 160.661C186.105 162.718 183.189 164.848 180.305 167.02C175.925 164.759 171.598 162.274 167.408 159.531C159.811 154.557 150.776 147.457 142.884 138.021C173.466 134.593 204.601 130.273 230.027 113.29C230.993 112.646 232.063 111.884 233.17 111.022C233.048 110.936 232.923 110.849 232.801 110.763C231.739 111.585 230.715 112.31 229.788 112.931C204.369 129.909 173.176 134.195 142.556 137.624C136.979 130.883 131.996 122.965 128.535 113.799C123.141 99.5208 123.426 85.51 129.316 75.356C129.572 74.9155 129.841 74.4803 130.12 74.0519C129.874 74.1642 129.63 74.2817 129.387 74.3991C129.235 74.6444 129.086 74.8913 128.943 75.1401C122.987 85.4064 122.692 99.5519 128.13 113.951C131.575 123.067 136.512 130.954 142.043 137.681C140.27 137.879 138.496 138.075 136.73 138.27C130.355 138.973 123.76 139.7 117.358 140.524C115.022 140.824 112.645 141.175 110.279 141.615C105.21 130.922 99.6417 120.492 92.4435 111.545C92.3399 111.647 92.2361 111.747 92.1325 111.849C99.2684 120.727 104.802 131.081 109.842 141.698C99.5277 143.664 89.5124 147.36 84.1652 155.961C79.1705 163.994 79.1757 175.098 84.179 188.964C84.3518 189.444 84.5298 189.916 84.7113 190.385H85.1745C84.9757 189.872 84.7787 189.353 84.5869 188.817C79.6302 175.081 79.613 164.103 84.5333 156.188C89.8166 147.688 99.7783 144.042 110.035 142.101C111.826 145.883 113.554 149.699 115.272 153.49L115.459 153.902C121.426 167.067 127.598 179.77 135.678 190.387H136.217C128.063 179.751 121.857 166.972 115.851 153.725L115.664 153.312C113.96 149.553 112.246 145.771 110.473 142.02C112.792 141.591 115.123 141.247 117.415 140.954C123.813 140.13 130.405 139.403 136.78 138.7C138.642 138.494 140.508 138.289 142.375 138.08C150.342 147.662 159.493 154.861 167.177 159.892C171.32 162.606 175.599 165.067 179.928 167.309C172.578 172.865 165.43 178.71 158.449 184.416C156.031 186.392 153.588 188.389 151.123 190.385H151.807C154.132 188.501 156.439 186.617 158.722 184.751C165.751 179.005 172.951 173.117 180.353 167.53C184.226 169.521 188.135 171.337 192.026 173C186.704 176.382 182.367 181.62 179.745 187.979C179.416 188.776 179.13 189.581 178.865 190.387H179.32C179.57 189.636 179.838 188.886 180.144 188.144C182.773 181.767 187.147 176.534 192.51 173.205C203.384 177.822 214.07 181.249 223.254 183.964L223.599 184.066C227.469 185.209 231.427 186.382 234.928 188.263C235.027 188.15 235.125 188.04 235.222 187.928C231.663 185.998 227.649 184.81 223.722 183.651L223.376 183.549C214.287 180.862 203.723 177.477 192.966 172.929C194.368 172.095 195.835 171.392 197.352 170.829C208.562 166.677 220.993 169.324 231.961 171.659H231.954Z" fill="white"/>
<path d="M19.2152 143.69C21.1232 151.496 20.2729 159.927 16.8786 166.82C14.656 171.335 11.4467 175.423 7.49414 178.933C7.57191 179.055 7.65314 179.176 7.73264 179.297C11.7491 175.741 15.0103 171.594 17.2657 167.01C20.7032 160.027 21.5656 151.49 19.6334 143.586C18.1247 137.411 15.0898 132.182 10.8954 128.397C10.802 128.508 10.7087 128.618 10.6171 128.729C14.7407 132.454 17.7254 137.607 19.2135 143.69H19.2152Z" fill="white"/>
<path d="M209.93 9.63171C219.978 19.7919 224.481 36.9158 218.94 52.6972C213.575 67.9809 201.815 80.6388 187.689 88.7807C176.322 95.3289 161.495 98.9409 150.317 92.0822C141.962 86.9587 137.63 76.9035 137.39 67.1817C137.15 57.4553 140.453 47.9801 144.536 39.1305C150.294 26.6597 158.04 14.5634 169.582 6.97865C185.489 -3.47835 200.27 -0.135767 209.93 9.63171Z" fill="#F4F3EB"/>
</svg>
