<svg width="84" height="37" viewBox="0 0 84 37" fill="none" xmlns="http://www.w3.org/2000/svg">
<path d="M8.51504 0.975983C10.3144 0.975983 11.7441 1.46146 12.7997 2.43242C13.8598 3.40337 14.3853 4.69501 14.3853 6.30288C14.3853 7.91075 13.8598 9.22911 12.8086 10.2001C11.7575 11.171 10.3278 11.6565 8.51059 11.6565H4.34172V16.8453H1.12152V0.975983H8.51059H8.51504ZM8.51504 8.74363C9.36574 8.74363 10.0249 8.52094 10.4926 8.08C10.9602 7.63906 11.1918 7.04669 11.1918 6.30288C11.1918 5.55907 10.9602 4.99343 10.4926 4.54803C10.0249 4.10264 9.36574 3.8844 8.51504 3.8844H4.34617V8.73918H8.51504V8.74363Z" fill="#231F20"/>
<path d="M27.0122 16.8453L21.7788 11.0196H20.0952V16.8453H16.875V0.975983H24.4779C26.1837 0.975983 27.5555 1.43919 28.5978 2.36115C29.64 3.28312 30.1611 4.49459 30.1611 5.99556C30.1611 7.32283 29.7513 8.4274 28.9274 9.30928C28.1078 10.1956 26.9988 10.739 25.6136 10.9439L30.9405 16.8409H27.0077L27.0122 16.8453ZM24.4779 8.10672C25.2217 8.10672 25.8185 7.9152 26.2773 7.52771C26.736 7.14022 26.9632 6.63247 26.9632 6.00001C26.9632 5.36755 26.736 4.85981 26.2773 4.47231C25.8185 4.08482 25.2172 3.8933 24.4779 3.8933H20.0952V8.11117H24.4779V8.10672Z" fill="#231F20"/>
<path d="M32.838 16.8453V0.975983H36.0581V16.8453H32.838Z" fill="#231F20"/>
<path d="M57.0406 16.8453H53.9139V8.20025L49.1749 16.8453H47.2553L42.494 8.20025V16.8453H39.3674V0.975983H42.1867L48.204 11.9416L54.2435 0.975983H57.0406V16.8453Z" fill="#231F20"/>
<path d="M72.411 16.8453H60.3542V0.975983H72.362V3.88885H63.5744V7.46535H71.6761V10.3292H63.5744V13.928H72.4066V16.8409L72.411 16.8453Z" fill="#231F20"/>
<path d="M16.8305 27.3521C16.8795 27.9044 16.9018 28.3632 16.9018 28.724C16.9018 31.0934 16.1446 33.0576 14.6303 34.6209C13.1159 36.1843 11.1874 36.9637 8.84908 36.9637C6.51076 36.9637 4.48423 36.1665 2.85854 34.572C1.23286 32.9775 0.417786 31.0133 0.417786 28.675C0.417786 26.3366 1.22395 24.3903 2.83182 22.7913C4.44414 21.1879 6.41723 20.3862 8.75109 20.3862C10.5015 20.3862 12.0737 20.796 13.4633 21.6199C14.853 22.4395 15.8239 23.6242 16.3762 25.1742L13.4856 26.1941C12.5236 24.3457 10.9424 23.4238 8.75109 23.4238C7.33029 23.4238 6.12772 23.9271 5.15231 24.9381C4.17245 25.9492 3.68252 27.1963 3.68252 28.6794C3.68252 30.1626 4.18581 31.4364 5.19686 32.4474C6.2079 33.4585 7.45499 33.9618 8.93815 33.9618C10.1363 33.9618 11.1651 33.6322 12.0158 32.9775C12.8665 32.3227 13.4277 31.4275 13.6994 30.2873H8.13199V27.3521H16.8261H16.8305Z" fill="#231F20"/>
<path d="M29.64 36.6119L24.4066 30.7861H22.7231V36.6119H19.5029V20.7425H27.1057C28.8116 20.7425 30.1834 21.2057 31.2256 22.1277C32.2678 23.0497 32.7889 24.2611 32.7889 25.7621C32.7889 27.0894 32.3792 28.1939 31.5552 29.0758C30.7357 29.9577 29.6266 30.5055 28.2415 30.7104L33.5684 36.6074H29.6355L29.64 36.6119ZM27.1057 27.8733C27.8495 27.8733 28.4464 27.6817 28.9051 27.2943C29.3639 26.9068 29.591 26.399 29.591 25.7666C29.591 25.1341 29.3639 24.6263 28.9051 24.2389C28.4464 23.8514 27.8451 23.6598 27.1057 23.6598H22.7231V27.8777H27.1057V27.8733Z" fill="#231F20"/>
<path d="M48.8142 22.8047C50.431 24.417 51.2416 26.3812 51.2416 28.7017C51.2416 31.0222 50.431 32.9596 48.8142 34.5631C47.1975 36.1665 45.2199 36.9682 42.8816 36.9682C40.5433 36.9682 38.5657 36.1665 36.949 34.5631C35.3322 32.9596 34.5216 31.0044 34.5216 28.7017C34.5216 26.399 35.3322 24.417 36.949 22.8047C38.5657 21.1924 40.5433 20.3907 42.8816 20.3907C45.2199 20.3907 47.1975 21.1968 48.8142 22.8047ZM46.516 32.443C47.5048 31.4498 47.9947 30.2027 47.9947 28.7017C47.9947 27.2007 47.5003 25.9447 46.516 24.9337C45.5272 23.9226 44.3158 23.4193 42.8816 23.4193C41.4474 23.4193 40.2315 23.9226 39.2472 24.9337C38.2584 25.9447 37.7685 27.2007 37.7685 28.7017C37.7685 30.2027 38.2629 31.4498 39.2472 32.443C40.2315 33.4362 41.4474 33.935 42.8816 33.935C44.3158 33.935 45.5317 33.4362 46.516 32.443Z" fill="#231F20"/>
<path d="M67.5118 29.5079C67.5118 31.7348 66.8882 33.5342 65.6411 34.906C64.394 36.2778 62.7461 36.9682 60.6928 36.9682C58.6395 36.9682 56.9025 36.2823 55.6242 34.906C54.346 33.5342 53.7046 31.7304 53.7046 29.5079V20.7425H56.9248V29.5079C56.9248 30.8351 57.2677 31.8952 57.9536 32.6924C58.6395 33.4897 59.5526 33.8905 60.6883 33.8905C61.7617 33.8905 62.6303 33.4941 63.2939 32.6924C63.9575 31.8952 64.2871 30.8351 64.2871 29.5079V20.7425H67.5073V29.5079H67.5118Z" fill="#231F20"/>
<path d="M78.072 20.7425C79.8714 20.7425 81.3011 21.228 82.3567 22.199C83.4167 23.1699 83.9423 24.4616 83.9423 26.0694C83.9423 27.6773 83.4167 28.9957 82.3656 29.9666C81.3145 30.9376 79.8848 31.423 78.0676 31.423H73.8987V36.6119H70.6785V20.7425H78.0676H78.072ZM78.072 28.5102C78.9227 28.5102 79.5819 28.2875 80.0496 27.8465C80.5172 27.4056 80.7488 26.8132 80.7488 26.0694C80.7488 25.3256 80.5172 24.76 80.0496 24.3146C79.5819 23.8692 78.9227 23.6509 78.072 23.6509H73.9031V28.5057H78.072V28.5102Z" fill="#231F20"/>
</svg>
