<svg width="21" height="20" viewBox="0 0 21 20" fill="none" xmlns="http://www.w3.org/2000/svg">
<mask id="mask0_158_1128" style="mask-type:alpha" maskUnits="userSpaceOnUse" x="0" y="0" width="21" height="20">
<rect x="0.5" width="20" height="20" fill="#D9D9D9"/>
</mask>
<g mask="url(#mask0_158_1128)">
<path d="M10.4997 9.99999C10.958 9.99999 11.3504 9.8368 11.6768 9.51041C12.0031 9.18402 12.1663 8.79166 12.1663 8.33332C12.1663 7.87499 12.0031 7.48263 11.6768 7.15624C11.3504 6.82985 10.958 6.66666 10.4997 6.66666C10.0413 6.66666 9.64898 6.82985 9.32259 7.15624C8.9962 7.48263 8.83301 7.87499 8.83301 8.33332C8.83301 8.79166 8.9962 9.18402 9.32259 9.51041C9.64898 9.8368 10.0413 9.99999 10.4997 9.99999ZM10.4997 16.125C12.1941 14.5694 13.4511 13.1562 14.2705 11.8854C15.09 10.6146 15.4997 9.4861 15.4997 8.49999C15.4997 6.9861 15.017 5.74652 14.0518 4.78124C13.0865 3.81596 11.9025 3.33332 10.4997 3.33332C9.0969 3.33332 7.91287 3.81596 6.94759 4.78124C5.98231 5.74652 5.49967 6.9861 5.49967 8.49999C5.49967 9.4861 5.9094 10.6146 6.72884 11.8854C7.54829 13.1562 8.80523 14.5694 10.4997 16.125ZM10.4997 18.3333C8.26356 16.4305 6.59342 14.6632 5.48926 13.0312C4.38509 11.3993 3.83301 9.88888 3.83301 8.49999C3.83301 6.41666 4.50315 4.75693 5.84342 3.52082C7.1837 2.28471 8.73579 1.66666 10.4997 1.66666C12.2636 1.66666 13.8156 2.28471 15.1559 3.52082C16.4962 4.75693 17.1663 6.41666 17.1663 8.49999C17.1663 9.88888 16.6143 11.3993 15.5101 13.0312C14.4059 14.6632 12.7358 16.4305 10.4997 18.3333Z" fill="#5553FB"/>
</g>
</svg>
