<svg width="16" height="17" viewBox="0 0 16 17" fill="none" xmlns="http://www.w3.org/2000/svg">
<mask id="mask0_2028_829" style="mask-type:alpha" maskUnits="userSpaceOnUse" x="0" y="0" width="16" height="17">
<rect y="0.394287" width="16" height="16" fill="#D9D9D9"/>
</mask>
<g mask="url(#mask0_2028_829)">
<path d="M8.00081 8.39445C8.36748 8.39445 8.68137 8.26389 8.94248 8.00278C9.20359 7.74167 9.33415 7.42778 9.33415 7.06112C9.33415 6.69445 9.20359 6.38056 8.94248 6.11945C8.68137 5.85834 8.36748 5.72778 8.00081 5.72778C7.63415 5.72778 7.32026 5.85834 7.05915 6.11945C6.79804 6.38056 6.66748 6.69445 6.66748 7.06112C6.66748 7.42778 6.79804 7.74167 7.05915 8.00278C7.32026 8.26389 7.63415 8.39445 8.00081 8.39445ZM8.00081 13.2945C9.35637 12.05 10.3619 10.9194 11.0175 9.90278C11.673 8.88612 12.0008 7.98334 12.0008 7.19445C12.0008 5.98334 11.6147 4.99167 10.8425 4.21945C10.0703 3.44723 9.12303 3.06112 8.00081 3.06112C6.87859 3.06112 5.93137 3.44723 5.15915 4.21945C4.38692 4.99167 4.00081 5.98334 4.00081 7.19445C4.00081 7.98334 4.32859 8.88612 4.98415 9.90278C5.6397 10.9194 6.64526 12.05 8.00081 13.2945ZM8.00081 15.0611C6.21192 13.5389 4.87581 12.125 3.99248 10.8195C3.10915 9.51389 2.66748 8.30556 2.66748 7.19445C2.66748 5.52778 3.20359 4.20001 4.27581 3.21112C5.34804 2.22223 6.5897 1.72778 8.00081 1.72778C9.41192 1.72778 10.6536 2.22223 11.7258 3.21112C12.798 4.20001 13.3341 5.52778 13.3341 7.19445C13.3341 8.30556 12.8925 9.51389 12.0091 10.8195C11.1258 12.125 9.7897 13.5389 8.00081 15.0611Z" fill="#231F20"/>
</g>
</svg>
