<svg width="24" height="24" viewBox="0 0 24 24" fill="none" xmlns="http://www.w3.org/2000/svg">
<mask id="mask0_2028_507" style="mask-type:alpha" maskUnits="userSpaceOnUse" x="0" y="0" width="24" height="24">
<rect width="24" height="24" fill="#D9D9D9"/>
</mask>
<g mask="url(#mask0_2028_507)">
<path d="M16 16V12.9L14.3 9.70002C13.7333 9.88336 13.2917 10.225 12.975 10.725C12.6583 11.225 12.5 11.775 12.5 12.375V18.975L14.4 22H22L21 9.62502L14.05 1.52502C13.4667 2.10836 13.1083 2.79169 12.975 3.57502C12.8417 4.35836 12.9667 5.10836 13.35 5.82502L17 12.6V16H16ZM7 16V12.6L10.65 5.82502C11.0333 5.12502 11.1542 4.37919 11.0125 3.58752C10.8708 2.79586 10.5167 2.10836 9.95 1.52502L3 9.62502L2 22H9.6L11.5 18.975V12.375C11.5 11.775 11.3417 11.225 11.025 10.725C10.7083 10.225 10.2667 9.88336 9.7 9.70002L8 12.9V16H7Z" fill="#231F20"/>
</g>
</svg>
