<svg width="32" height="32" viewBox="0 0 32 32" fill="none" xmlns="http://www.w3.org/2000/svg">
<mask id="mask0_353_778" style="mask-type:alpha" maskUnits="userSpaceOnUse" x="0" y="0" width="32" height="32">
<rect width="32" height="32" fill="#D9D9D9"/>
</mask>
<g mask="url(#mask0_353_778)">
<path d="M16 30C14.2667 28.4667 12.3722 27.2889 10.3167 26.4667C8.26111 25.6445 6.15556 25.2334 4 25.2334V10.9334C6.08889 10.9334 8.16111 11.4112 10.2167 12.3667C12.2722 13.3223 14.2 14.6556 16 16.3667C17.8 14.6556 19.7278 13.3223 21.7833 12.3667C23.8389 11.4112 25.9111 10.9334 28 10.9334V25.2334C25.8444 25.2334 23.7389 25.6445 21.6833 26.4667C19.6278 27.2889 17.7333 28.4667 16 30ZM16.1 11.6C14.6556 11.6 13.4389 11.1056 12.45 10.1167C11.4611 9.12782 10.9667 7.91115 10.9667 6.46671C10.9667 5.02226 11.4611 3.8056 12.45 2.81671C13.4389 1.82782 14.6556 1.33337 16.1 1.33337C17.5444 1.33337 18.7611 1.82782 19.75 2.81671C20.7389 3.8056 21.2333 5.02226 21.2333 6.46671C21.2333 7.91115 20.7389 9.12782 19.75 10.1167C18.7611 11.1056 17.5444 11.6 16.1 11.6Z" fill="#5553FB"/>
</g>
</svg>
