<svg width="32" height="32" viewBox="0 0 32 32" fill="none" xmlns="http://www.w3.org/2000/svg">
<mask id="mask0_353_784" style="mask-type:alpha" maskUnits="userSpaceOnUse" x="0" y="0" width="32" height="32">
<rect width="32" height="32" fill="#D9D9D9"/>
</mask>
<g mask="url(#mask0_353_784)">
<path d="M10.667 24L16.0003 19.9333L21.3337 24L19.2003 17.4333L24.5337 13.6666H18.0337L16.0003 6.89996L13.9337 13.6666H7.43366L12.767 17.4333L10.667 24ZM16.0003 29.3333C14.1781 29.3333 12.4559 28.9833 10.8337 28.2833C9.21144 27.5833 7.79477 26.6277 6.58366 25.4166C5.37255 24.2055 4.41699 22.7888 3.71699 21.1666C3.01699 19.5444 2.66699 17.8222 2.66699 16C2.66699 14.1555 3.01699 12.4222 3.71699 10.8C4.41699 9.17774 5.37255 7.76663 6.58366 6.56663C7.79477 5.36663 9.21144 4.41663 10.8337 3.71663C12.4559 3.01663 14.1781 2.66663 16.0003 2.66663C17.8448 2.66663 19.5781 3.01663 21.2003 3.71663C22.8225 4.41663 24.2337 5.36663 25.4337 6.56663C26.6337 7.76663 27.5837 9.17774 28.2837 10.8C28.9837 12.4222 29.3337 14.1555 29.3337 16C29.3337 17.8222 28.9837 19.5444 28.2837 21.1666C27.5837 22.7888 26.6337 24.2055 25.4337 25.4166C24.2337 26.6277 22.8225 27.5833 21.2003 28.2833C19.5781 28.9833 17.8448 29.3333 16.0003 29.3333Z" fill="#5553FB"/>
</g>
</svg>
