<svg width="32" height="32" viewBox="0 0 32 32" fill="none" xmlns="http://www.w3.org/2000/svg">
<mask id="mask0_353_796" style="mask-type:alpha" maskUnits="userSpaceOnUse" x="0" y="0" width="32" height="32">
<rect width="32" height="32" fill="#D9D9D9"/>
</mask>
<g mask="url(#mask0_353_796)">
<path d="M15.9998 29.3333C13.6665 29.3333 11.5332 28.7833 9.59984 27.6833C7.6665 26.5833 6.09984 25.1333 4.89984 23.3333L10.3665 17.8666L14.5998 21.5666L21.9665 14.2V18.6H23.9665V10.9333H16.2998V12.9333H20.6998L14.5332 19.1L10.2998 15.4L3.9665 21.7333C3.54428 20.8666 3.22206 19.95 2.99984 18.9833C2.77762 18.0166 2.6665 17.0222 2.6665 16C2.6665 14.1555 3.0165 12.4222 3.7165 10.8C4.4165 9.17774 5.37206 7.76663 6.58317 6.56663C7.79428 5.36663 9.21095 4.41663 10.8332 3.71663C12.4554 3.01663 14.1776 2.66663 15.9998 2.66663C17.8443 2.66663 19.5776 3.01663 21.1998 3.71663C22.8221 4.41663 24.2332 5.36663 25.4332 6.56663C26.6332 7.76663 27.5832 9.17774 28.2832 10.8C28.9832 12.4222 29.3332 14.1555 29.3332 16C29.3332 17.8222 28.9832 19.5444 28.2832 21.1666C27.5832 22.7888 26.6332 24.2055 25.4332 25.4166C24.2332 26.6277 22.8221 27.5833 21.1998 28.2833C19.5776 28.9833 17.8443 29.3333 15.9998 29.3333Z" fill="#5553FB"/>
</g>
</svg>
